# xmcd
#
# Track frame offsets:
#	150
#	24237
#	41225
#	65455
#
# Disc length: 1095 seconds
#
# Revision: 1
# Processed by: cddbd v1.5PL3 Copyright (c) Steve Scherf et al.
# Submitted via: CDex 1.50Beta5
#
DISCID=2d044504
DTITLE=小松未歩 - 私さがし
DYEAR=2003
DGENRE=Pop
TTITLE0=私さがし
TTITLE1=通り雨
TTITLE2=私さがし ＜Instrumental＞
TTITLE3=通り雨 ＜Instrumental＞
EXTD=
EXTT0=
EXTT1=
EXTT2=
EXTT3=
PLAYORDER=
